<svg xmlns="http://www.w3.org/2000/svg" version="1.1" viewBox="-5.0 -10.0 110.0 135.0">
 <path d="m78.594 29.59h-12.715c-0.19531 0-0.35156-0.15625-0.35156-0.35156v-5.7383c0-0.16406 0.11328-0.30859 0.27344-0.34375 3.0938-0.73047 5.1484-3.668 4.7812-6.8281-0.37109-3.1562-3.0469-5.5391-6.2266-5.5391-3.1797 0-5.8594 2.3828-6.2266 5.5391-0.37109 3.1602 1.6875 6.0977 4.7812 6.8281 0.16016 0.035156 0.27344 0.17969 0.27344 0.34375v5.7383c0 0.19531-0.16016 0.35156-0.35156 0.35156h-25.664c-0.19141 0-0.35156-0.15625-0.35156-0.35156v-5.7383c0-0.16406 0.11328-0.30859 0.27344-0.34375 3.0938-0.73047 5.1523-3.668 4.7812-6.8281-0.36719-3.1562-3.0469-5.5391-6.2266-5.5391-3.1797 0-5.8555 2.3828-6.2266 5.5391-0.36719 3.1602 1.6875 6.0977 4.7812 6.8281 0.16016 0.035156 0.27344 0.17969 0.27344 0.34375v5.7383c0 0.19531-0.15625 0.35156-0.35156 0.35156h-12.715c-3.6133 0.011718-6.5391 2.9375-6.5508 6.5547v46.516c0.011719 3.6133 2.9375 6.5391 6.5508 6.5547h57.188c3.6133-0.015625 6.5391-2.9414 6.5508-6.5547v-46.516c-0.011719-3.6172-2.9375-6.543-6.5508-6.5547zm-66.082 36.789v-22.801c0-0.19531-0.15625-0.35156-0.35156-0.35156h-2.3281c-2.6641 0.007813-4.8242 2.1641-4.832 4.8281v13.844c0.007812 2.6641 2.1641 4.8203 4.8281 4.832h2.332c0.19531-0.003907 0.35156-0.16016 0.35156-0.35156zm74.977-22.801v22.801c0 0.19141 0.15625 0.34766 0.35156 0.34766h2.3281c2.6641-0.007812 4.8203-2.1641 4.832-4.8281v-13.844c-0.007812-2.6641-2.1641-4.8203-4.8281-4.8281h-2.332c-0.19531 0-0.35156 0.15625-0.35156 0.35156zm-50.84 3.1484c1.1836 1.1836 1.6992 2.8828 1.3711 4.5273-0.32422 1.6406-1.4531 3.0117-3 3.6523-1.5469 0.64453-3.3125 0.46875-4.707-0.46094-1.3906-0.92969-2.2305-2.4961-2.2305-4.1719 0-2.0273 1.2227-3.8594 3.0977-4.6367 1.875-0.77344 4.0352-0.34766 5.4688 1.0898zm-3.5469-3.8164c2.9766 0 5.6602 1.7969 6.8008 4.5469s0.50781 5.918-1.5977 8.0234c-2.1055 2.1055-5.2695 2.7344-8.0234 1.5938-2.75-1.1367-4.543-3.8242-4.543-6.8008 0-4.0664 3.2969-7.3594 7.3633-7.3633zm37.348 3.8125v0.003906c1.1836 1.1836 1.6992 2.8828 1.3711 4.5273-0.32812 1.6406-1.4531 3.0117-3 3.6523-1.5469 0.64453-3.3125 0.46875-4.707-0.46094-1.3945-0.92969-2.2305-2.4961-2.2305-4.1719 0-2.0273 1.2227-3.8594 3.0977-4.6367 1.875-0.77344 4.0312-0.34766 5.4688 1.0898zm-3.5508-3.8125c2.9805 0 5.6641 1.7969 6.8047 4.5469 1.1367 2.75 0.50781 5.918-1.5977 8.0234s-5.2734 2.7344-8.0234 1.5938c-2.75-1.1367-4.543-3.8242-4.543-6.8008 0-4.0664 3.2969-7.3633 7.3594-7.3633zm-0.47656 30.391c0.19531 0 0.35156 0.15625 0.35156 0.35156v2.3125c0 0.19141-0.15625 0.34766-0.35156 0.35156h-32.844c-0.19531-0.003906-0.35156-0.16016-0.35156-0.35156v-2.3125c0-0.19531 0.15625-0.35156 0.35156-0.35156zm-34.371-2.3438h35.895c0.64844 0 1.1758 0.52344 1.1758 1.1719v5.3594c0 0.64453-0.52734 1.1719-1.1758 1.1719h-35.891c-0.64844 0-1.1758-0.52734-1.1758-1.1719v-5.3594c0-0.64844 0.52734-1.1719 1.1758-1.1719z" fill-rule="evenodd"/>
<text x="0.0" y="117.5" font-size="5.0" font-weight="bold" font-family="Arbeit Regular, Helvetica, Arial-Unicode, Arial, Sans-serif" fill="#000000"></text><text x="0.0" y="122.5" font-size="5.0" font-weight="bold" font-family="Arbeit Regular, Helvetica, Arial-Unicode, Arial, Sans-serif" fill="#000000"></text></svg>
