<svg viewBox="150 170 500 459.99999999999994" xmlns="http://www.w3.org/2000/svg" overflow="visible" xmlns:xlink="http://www.w3.org/1999/xlink" width="500px" height="459.99999999999994px"><g id="Master/Squiggle/Monochromatic" stroke="none" stroke-width="1" fill="none" fill-rule="evenodd"><g id="Monochromatic" fill="#411500" transform="scale(1 1)"><g id="Monochromatic/Squiggle 11" stroke="none" stroke-width="1" fill="none" fill-rule="evenodd"><path d="M166.179603,454.481382 C176.668603,500.112382 202.046603,566.835382 254.278603,587.382382 C353.167603,634.397382 475.220603,608.440382 545.960603,524.897382 C738.348603,296.880382 544.179603,91.8273824 290.506603,234.927382 C302.010603,232.951382 320.650603,223.725382 330.936603,226.979382 C233.094603,260.114382 171.833603,346.952382 166.179603,454.481382 M649.177603,334.669382 C643.138603,450.837382 572.098603,563.311382 461.650603,605.886382 C355.267603,644.570382 197.564603,617.210382 160.558603,497.137382 C127.353603,395.679382 195.741603,293.158382 280.041603,241.400382 C281.782603,239.256382 280.112603,230.314382 282.578603,228.416382 C403.866603,141.292382 628.950603,157.425382 649.177603,334.669382" id="Fill-31" fill="#ffc100"/></g></g></g></svg>