<svg viewBox="140 30 520 740.0000000000002" xmlns="http://www.w3.org/2000/svg" overflow="visible" xmlns:xlink="http://www.w3.org/1999/xlink" width="520px" height="740.0000000000002px"><g id="Master/Squiggle/Monochromatic" stroke="none" stroke-width="1" fill="none" fill-rule="evenodd"><g id="Monochromatic" fill="#ffc100" transform="scale(1 1)"><g id="Monochromatic/Squiggle 9" stroke="none" stroke-width="1" fill="none" fill-rule="evenodd"><path d="M193.1502,529.581933 C215.3772,556.074933 226.7172,589.396933 241.6072,620.204933 C245.3142,628.656933 248.1752,628.486933 256.1552,625.461933 C280.8522,616.100933 306.1002,608.183933 331.2262,599.986933 C333.0512,599.391933 335.6112,601.052933 337.8302,601.663933 C209.3192,658.811933 259.5812,617.671933 298.2812,765.208933 C292.0702,761.867933 282.7322,760.083933 280.1682,754.927933 C263.0022,720.429933 248.2982,684.705933 232.1072,649.724933 C206.1492,654.119933 181.5772,673.465933 155.0502,675.564933 C253.5612,614.011933 230.0522,678.775933 185.3462,532.694933 C187.9472,531.656933 190.5482,530.619933 193.1502,529.581933" id="Fill-5" fill="#ffc100"/><path d="M646.7152,374.523833 C620.3202,367.843833 592.8592,361.481833 565.7862,353.757833 C554.6572,350.582833 549.3772,352.017833 543.9222,363.366833 C523.1742,405.237833 501.0532,446.625833 478.5092,487.558833 C476.7332,490.439833 472.0602,491.535833 468.7162,493.449833 C476.1232,443.677833 511.8282,396.923833 530.0332,348.818833 C530.4422,347.956833 528.6812,344.890833 527.6232,344.716833 C496.8062,337.633833 462.6822,338.613833 433.6432,326.956833 C435.5252,325.847833 437.5122,323.629833 439.2732,323.797833 C463.4122,326.097833 487.5252,328.682833 511.6322,331.301833 C522.1222,331.534833 535.3932,339.456833 540.9092,326.259833 C552.0102,306.793833 562.5952,287.028833 574.0132,267.753833 C575.4502,265.327833 580.7662,265.198833 584.2852,264.005833 C541.6332,377.505833 546.2902,321.363833 657.1172,369.925833 C654.3122,371.165833 651.5072,372.405833 646.7152,374.523833" id="Fill-7" fill="#ffc100"/><path d="M194.621,34.0414331 C205.419,47.3384331 213.149,67.8884331 221.431,83.5764331 C249.33,75.2514331 276.885,52.7224331 303.571,39.5074331 C305.33,38.5034331 308.106,39.2894331 310.41,39.2454331 C305.088,59.6934331 226.72,87.5154331 231.352,109.255433 C239.869,136.063433 259.359,161.480433 262.988,188.707433 C246.708,189.826433 222.178,130.668433 212.93,115.820433 C196.086,113.105433 162.326,152.958433 143,151.814433 C147.427,132.775433 206.244,110.108433 203.789,94.1484331 C197.405,78.2444331 190.513,62.5444331 183.751,46.7934331 C180.666,39.6044331 179.411,33.4334331 194.621,34.0414331" id="Fill-9" fill="#ffc100"/></g></g></g></svg>
