<svg viewBox="80 100 640.0000000000001 600.0000000000001" xmlns="http://www.w3.org/2000/svg" overflow="visible" xmlns:xlink="http://www.w3.org/1999/xlink" width="640.0000000000001px" height="600.0000000000001px"><g id="Master/Squiggle/Monochromatic" stroke="none" stroke-width="1" fill="none" fill-rule="evenodd"><g id="Monochromatic" fill="#ffc100" transform="scale(1 1)"><g id="Monochromatic/Squiggle 12" stroke="none" stroke-width="1" fill="none" fill-rule="evenodd"><path d="M402.665636,527.453182 C401.875636,541.633182 406.679636,546.920182 415.901636,541.687182 C435.684636,530.462182 457.076636,520.442182 473.467636,505.243182 C499.325636,480.405182 523.611636,452.884182 546.315636,425.099182 C488.885636,432.254182 418.285636,468.638182 402.665636,527.453182 M442.366636,180.987182 C429.324636,178.042182 392.893636,204.131182 379.668636,211.597182 C351.755636,230.880182 313.844636,271.731182 332.807636,307.406182 C338.702636,309.989182 348.912636,309.391182 354.102636,305.679182 C398.251636,275.390182 436.146636,239.064182 442.366636,180.987182 M359.212636,102.062182 C396.587636,101.633182 440.829636,116.791182 449.962636,157.875182 C451.599636,166.376182 455.033636,166.395182 461.681636,164.990182 C551.634636,145.240182 651.798636,238.998182 610.858636,329.849182 C600.986636,356.714182 587.907636,382.401182 576.520636,408.729182 C576.364636,409.092182 579.821636,412.088182 581.529636,412.029182 C764.653636,402.986182 743.768636,634.594182 623.180636,698.834182 C719.881636,609.541182 759.570636,405.462182 571.230636,421.880182 C564.863636,421.933182 558.486636,435.512182 552.311636,443.039182 C513.671636,485.849182 470.540636,547.992182 407.639636,549.454182 C389.937636,544.849182 386.703636,530.316182 397.902636,507.867182 C426.574636,447.001182 491.170636,428.193182 551.457636,414.487182 C625.503636,336.397182 632.738636,188.011182 502.914636,169.854182 C494.275636,169.485182 455.987636,168.673182 453.757636,178.254182 C449.072636,238.701182 408.229636,293.534182 351.670636,313.655182 C325.109636,319.913182 312.706636,300.406182 319.626636,275.917182 C335.475636,218.352182 387.376636,191.586182 437.945636,170.087182 C446.210636,133.570182 406.108636,106.668182 367.100636,108.059182 C253.127636,95.0701817 51.4626358,289.440182 99.8446358,400.378182 C52.6036358,361.983182 116.321636,261.814182 149.247636,228.828182 C206.429636,167.912182 268.248636,99.6491817 359.212636,102.062182" id="Fill-1" fill="#ffc100"/></g></g></g></svg>