<svg viewBox="-160 280 1120 240.00000000000023" xmlns="http://www.w3.org/2000/svg" overflow="visible" xmlns:xlink="http://www.w3.org/1999/xlink" width="1120px" height="240.00000000000023px"><g id="Master/Squiggle/Monochromatic" stroke="none" stroke-width="1" fill="none" fill-rule="evenodd"><g id="Monochromatic" fill="#ffc100" transform="scale(1 1)"><g id="Monochromatic/Squiggle 1" stroke="none" stroke-width="1" fill="none" fill-rule="evenodd"><g id="Group-3" transform="translate(-156.000000, 280.000000)" fill="#ffc100"><path d="M0.0997,195.7275 C-3.1393,129.7805 73.4247,3.1335 123.6367,109.3165 C139.3077,147.2595 142.2607,193.3885 172.3677,223.4365 C184.2307,234.6155 200.2247,228.1495 206.1247,208.8615 C226.9917,150.0955 228.3357,81.7025 269.5437,32.1635 C295.7757,2.2445 340.6057,11.4115 353.6297,49.3295 C371.6107,94.8155 377.8117,147.3815 403.0447,188.9315 C419.1587,162.5365 421.9137,127.8535 433.2287,98.5645 C445.2507,38.1355 517.8617,-51.6115 565.4197,37.5925 C586.7287,84.4645 591.4817,139.8215 615.6037,184.9255 C640.5497,149.8795 671.2147,15.3995 711.7307,10.2745 C763.6407,-1.7145 773.4057,56.7865 785.1277,93.7875 C792.0557,105.8105 807.8827,188.3535 819.2277,181.0275 C850.7107,121.3095 910.0177,-53.5575 993.8467,43.7965 C1016.7817,82.5335 1027.1067,129.9565 1044.4677,171.9765 C1085.1987,162.1515 1088.4167,110.3885 1098.5417,76.4385 C1099.5647,71.8435 1096.0727,59.1995 1109.3497,64.7905 C1110.8627,65.4275 1112.6457,68.0745 1112.50722,69.6185 C1107.5477,111.8505 1101.7747,179.4975 1053.9947,193.1315 C1038.9667,191.7055 1021.6447,185.0915 1016.3697,168.0385 C999.3127,123.4305 1001.5437,64.7595 962.1157,32.6585 C918.0707,23.6035 891.0267,82.0615 875.3057,115.6615 C856.8587,147.0405 847.5577,231.2815 797.2957,189.9775 C751.3737,151.6645 777.7337,78.8725 742.3117,32.4625 C702.9137,-10.6895 679.0767,115.3785 663.1477,138.6125 C654.9687,158.1125 647.3517,177.9355 637.7337,196.7165 C630.6007,210.6445 599.5337,208.8235 591.1727,192.3925 C565.2387,142.2005 561.0917,83.4775 542.0257,31.1235 C529.1127,-1.6175 508.1597,8.7795 489.3177,28.2535 C447.8057,71.3705 451.8777,134.9775 428.4897,186.9535 C417.2457,208.0485 380.0017,207.0035 373.5907,181.2915 C357.9587,150.6335 343.1947,-17.9415 287.7167,35.1595 C228.8147,78.3465 255.0977,278.5365 159.6977,232.2625 C119.3907,205.0115 124.9007,142.6395 105.6527,101.6095 C63.5887,17.5615 -1.4913,159.2685 11.3827,204.6095 C11.6307,214.5175 20.6837,223.5955 17.6587,233.7645 C15.2257,232.9615 11.0937,232.7135 10.6237,231.2705 C6.3567,218.1685 2.7287,204.8575 0.0997,195.7275" id="Fill-1"/></g></g></g></g></svg>