<svg viewBox="180 190 439.99999999999994 419.99999999999994" xmlns="http://www.w3.org/2000/svg" overflow="visible" xmlns:xlink="http://www.w3.org/1999/xlink" width="439.99999999999994px" height="419.99999999999994px"><g id="Master/Squiggle/Monochromatic" stroke="none" stroke-width="1" fill="none" fill-rule="evenodd"><g id="Monochromatic" fill="#ffc100" transform="scale(1 1)"><g id="Monochromatic/Squiggle 13" stroke="none" stroke-width="1" fill="none" fill-rule="evenodd"><path d="M610.928036,410.041659 C604.284036,607.524659 233.851036,691.095659 192.503036,473.973659 C165.254036,345.975659 301.537036,130.481659 442.859036,216.881659 C371.025036,180.966659 320.835036,217.987659 269.843036,269.191659 C153.029036,393.294659 189.661036,628.452659 398.473036,583.675659 C503.586036,574.232659 630.335036,462.977659 574.415036,351.417659 C531.064036,259.012659 409.954036,313.115659 349.475036,358.575659 C299.818036,392.372659 286.051036,509.264659 370.218036,496.847659 C392.340036,492.595659 414.512036,484.137659 434.261036,473.213659 C455.645036,461.385659 460.480036,430.526659 448.071036,410.122659 C440.749036,398.083659 416.651036,401.177659 401.982036,415.298659 C399.722036,417.474659 394.428036,416.498659 390.537036,416.980659 C415.313036,358.281659 500.114036,410.052659 462.969036,463.607659 C429.322036,532.689659 280.947036,522.547659 292.957036,432.283659 C296.892036,345.983659 384.120036,312.757659 454.676036,292.666659 C525.657036,270.225659 615.633036,328.737659 610.928036,410.041659" id="Fill-29" fill="#ffc100"/></g></g></g></svg>