<svg viewBox="130 190 540 419.99999999999994" xmlns="http://www.w3.org/2000/svg" overflow="visible" xmlns:xlink="http://www.w3.org/1999/xlink" width="540px" height="419.99999999999994px"><g id="Master/Squiggle/Monochromatic" stroke="none" stroke-width="1" fill="none" fill-rule="evenodd"><g id="Monochromatic" fill="#ffc100" transform="scale(1 1)"><g id="Monochromatic/Squiggle 8" stroke="none" stroke-width="1" fill="none" fill-rule="evenodd"><path d="M270.099522,476.646 C271.089522,478.304 272.999522,481.501 274.909522,484.699 C344.852522,449.997 395.545522,388.154 399.422522,307.854 C401.132522,286.286 387.827522,274.479 366.972522,279.28 C299.152522,302.729 265.918522,408.229 270.099522,476.646 M415.369522,589.897 C537.202522,595.005 608.212522,512.332 652.787522,409 C654.611522,406.628 665.035522,405.719 663.745522,412.646 C606.908522,611.746 367.433522,677.463 248.300522,498.557 C46.4745215,500.17 160.620522,229.297 281.883522,198 C222.630522,231.748 176.193522,292.671 156.783522,358.685 C131.420522,422.687 183.841522,517.451 255.648522,485.555 C240.097522,415.454 284.088522,352.368 320.713522,297.06 C345.698522,255.324 423.140522,259.258 414.822522,314.409 C409.363522,393.217 353.936522,469.245 277.611522,492.976 C276.402522,493.331 275.098522,497.964 275.862522,499.727 C302.340522,560.855 350.409522,588.645 415.369522,589.897" id="Fill-3" fill="#ffc100"/></g></g></g></svg>