<svg viewBox="90 130 620.0000000000001 540" xmlns="http://www.w3.org/2000/svg" overflow="visible" xmlns:xlink="http://www.w3.org/1999/xlink" width="620.0000000000001px" height="540px"><g id="Master/Squiggle/Monochromatic" stroke="none" stroke-width="1" fill="none" fill-rule="evenodd"><g id="Monochromatic" fill="#ffc100" transform="scale(1 1)"><g id="Monochromatic/Squiggle 2" stroke="none" stroke-width="1" fill="none" fill-rule="evenodd"><path d="M599.131464,242.450305 C597.991464,238.605305 596.836464,234.706305 595.680464,230.807305 C594.713464,236.613305 592.349464,242.228305 597.404464,246.879305 C597.920464,245.555305 598.436464,244.232305 599.131464,242.450305 M408.619464,317.144305 C400.464464,291.279305 393.370464,268.734305 386.148464,246.230305 C368.106464,265.285305 351.992464,345.727305 376.626464,367.928305 C390.430464,372.350305 401.597464,327.186305 408.619464,317.144305 M246.850464,132.717305 C312.815464,132.795305 351.886464,162.189305 382.260464,212.276305 C384.039464,215.335305 386.295464,214.307305 387.809464,211.932305 C437.668464,126.658305 525.641464,126.847305 590.327464,195.525305 C591.181464,196.202305 594.126464,195.742305 594.922464,194.811305 C611.771464,175.072305 629.930464,154.736305 658.162464,158.481305 C663.946464,157.332305 718.125464,182.442305 702.594464,183.312305 C673.803464,167.841305 653.250464,156.907305 627.021464,183.053305 C613.685464,193.680305 601.836464,204.973305 608.000464,223.493305 C626.120464,269.483305 580.987464,270.554305 579.838464,241.513305 C583.298464,223.763305 586.488464,203.030305 570.020464,190.958305 C552.087464,177.961305 533.557464,164.416305 513.162464,156.501305 C461.373464,137.897305 419.754464,185.781305 394.504464,224.898305 C391.623464,229.336305 398.055464,240.210305 400.869464,247.886305 C417.046464,286.940305 431.200464,346.615305 387.002464,373.077305 C326.866464,392.116305 358.794464,263.102305 375.067464,237.028305 C381.850464,223.211305 371.047464,214.987305 365.017464,206.007305 C271.209464,79.2083049 154.530464,149.637305 123.782464,282.321305 C93.646464,369.905305 110.311464,462.797305 120.478464,552.386305 C124.478464,581.735305 132.022464,610.686305 139.392464,639.453305 C143.647464,656.441305 151.236464,660.929305 167.830464,666.747305 C121.008464,684.161305 118.530464,579.504305 107.947464,550.511305 C89.533464,447.888305 84.017464,337.925305 125.154464,240.063305 C144.771464,190.271305 188.529464,124.392305 246.850464,132.717305" id="Fill-43" fill="#ffc100"/></g></g></g></svg>