<svg viewBox="220 40 359.9999999999999 710" xmlns="http://www.w3.org/2000/svg" overflow="visible" xmlns:xlink="http://www.w3.org/1999/xlink" width="359.9999999999999px" height="710px"><g id="Master/Squiggle/Monochromatic" stroke="none" stroke-width="1" fill="none" fill-rule="evenodd"><g id="Monochromatic" fill="#ffc100" transform="scale(1 1)"><g id="Monochromatic/Squiggle 3" stroke="none" stroke-width="1" fill="none" fill-rule="evenodd"><path d="M418.987772,153.524936 C484.198772,151.433936 482.418772,221.741936 467.750772,264.731936 C447.206772,371.932936 275.331772,461.205936 230.723772,318.770936 C218.571772,242.466936 247.894772,169.082936 302.447772,115.601936 C327.838772,84.9189357 359.134772,61.9419357 398.290772,54.3549357 C508.223772,23.1959357 569.500772,134.123936 573.306772,229.060936 C582.012772,428.528936 467.172772,613.210936 312.322772,731.387936 C301.454772,739.353936 275.365772,751.098936 262.045772,750.114936 C279.002772,731.272936 307.907772,724.375936 325.214772,705.692936 C354.126772,678.319936 380.620772,648.159936 406.145772,617.517936 C457.943772,557.211936 496.277772,487.156936 519.518772,411.118936 C540.127772,347.336936 553.044772,280.718936 541.235772,213.862936 C531.514772,141.324936 490.439772,37.0419357 395.728772,71.4829357 C297.730772,112.794936 210.152772,244.654936 265.901772,347.824936 C286.196772,377.997936 337.304772,397.674936 376.227772,364.715936 C422.622772,323.936936 499.424772,212.698936 427.184772,165.883936 C386.279772,163.748936 351.412772,216.121936 356.312772,255.408936 C371.532772,247.410936 381.155772,226.514936 399.928772,228.058936 C393.775772,243.492936 369.849772,271.339936 349.470772,266.480936 C313.575772,250.570936 372.883772,141.964936 418.987772,153.524936" id="Fill-41" fill="#ffc100"/></g></g></g></svg>