<svg viewBox="10 170 779.9999999999998 459.99999999999994" xmlns="http://www.w3.org/2000/svg" overflow="visible" xmlns:xlink="http://www.w3.org/1999/xlink" width="779.9999999999998px" height="459.99999999999994px"><g id="Master/Squiggle/Monochromatic" stroke="none" stroke-width="1" fill="none" fill-rule="evenodd"><g id="Monochromatic" fill="#ffc100" transform="scale(1 1)"><g id="Monochromatic/Squiggle 14" stroke="none" stroke-width="1" fill="none" fill-rule="evenodd"><path d="M249.062,238.469637 C193.954,516.130637 105.451,830.571637 363.299,359.548637 C385.205,314.556637 476.348,240.746637 490.637,329.597637 C484.339,417.206637 449.152,501.512637 448.508,589.370637 C540.471,497.942637 655.527,244.786637 694.567,525.449637 C722.668,508.709637 747.819,447.362637 784.863,478.397637 C782.19,493.360637 758.824,498.916637 749.338,510.718637 C728.756,536.543637 688.503,570.076637 665.397,528.013637 C642.705,367.161637 635.51,415.019637 545.513,512.551637 C522.107,542.920637 498.407,573.123637 473.515,602.275637 C335.462,657.224637 478.833,379.396637 467.431,323.661637 C433.666,245.784637 340.742,456.013637 321.714,486.212637 C294.693,566.527637 131.45,723.331637 159.163,538.712637 C165.452,440.078637 333.139,8.49463719 114.662,265.600637 C78.318,309.027637 60.125,375.308637 17,408.771637 C31.469,339.316637 219.322,48.3446372 249.062,238.469637" id="Fill-27" fill="#ffc100"/></g></g></g></svg>