<svg width="114" height="42" viewBox="0 0 114 42" fill="none" xmlns="http://www.w3.org/2000/svg">
<g filter="url(#filter0_i_2_57)">
<path d="M3.00488 4.47168H10.7412C14.0283 4.47168 16.5573 5.59505 18.3281 7.8418C20.11 10.0885 21.001 12.7337 21.001 15.7773C21.012 18.8431 20.1266 21.4827 18.3447 23.6963C16.5739 25.8988 14.0394 27 10.7412 27H3.00488C2.1084 27 1.66016 26.751 1.66016 26.2529V5.21875C1.66016 4.7207 2.1084 4.47168 3.00488 4.47168ZM10.7412 5.98242H4.36621V25.4893H10.7412C13.32 25.4893 15.2292 24.4378 16.4688 22.335C17.7083 20.221 18.3226 18.0352 18.3115 15.7773C18.3115 13.5417 17.6917 11.3503 16.4521 9.20312C15.2236 7.05599 13.32 5.98242 10.7412 5.98242ZM44.2266 26.668C44.2266 27.1549 43.7174 27.3984 42.6992 27.3984C41.9134 27.3984 41.4375 27.2048 41.2715 26.8174L38.167 19.6787H27.3262L24.2051 27.0166C24.0833 27.2712 23.7734 27.3984 23.2754 27.3984C22.6003 27.3984 22.2627 27.2324 22.2627 26.9004C22.2627 26.8893 22.2738 26.8395 22.2959 26.751L31.709 4.62109C31.8529 4.25586 32.373 4.07324 33.2695 4.07324C34.0443 4.07324 34.5202 4.26693 34.6973 4.6543L44.127 26.3691C44.1934 26.5241 44.2266 26.6237 44.2266 26.668ZM37.5195 18.168L32.6885 7.04492L27.957 18.168H37.5195ZM55.084 27.3984C54.1875 27.3984 53.7393 27.1494 53.7393 26.6514V16.3086L45.1895 5.08594C45.112 4.9974 45.0732 4.89779 45.0732 4.78711C45.0732 4.3112 45.5934 4.07324 46.6338 4.07324C47.2979 4.07324 47.7516 4.23372 47.9951 4.55469L55.5488 14.4824L63.0361 4.42188C63.2021 4.18945 63.5397 4.07324 64.0488 4.07324C64.7461 4.07324 65.0947 4.25033 65.0947 4.60449C65.0947 4.6709 65.0726 4.73177 65.0283 4.78711L56.4453 16.3252V26.6514C56.4453 27.1494 55.9915 27.3984 55.084 27.3984ZM87.8887 26.668C87.8887 27.1549 87.3796 27.3984 86.3613 27.3984C85.5755 27.3984 85.0996 27.2048 84.9336 26.8174L81.8291 19.6787H70.9883L67.8672 27.0166C67.7454 27.2712 67.4355 27.3984 66.9375 27.3984C66.2624 27.3984 65.9248 27.2324 65.9248 26.9004C65.9248 26.8893 65.9359 26.8395 65.958 26.751L75.3711 4.62109C75.515 4.25586 76.0352 4.07324 76.9316 4.07324C77.7064 4.07324 78.1823 4.26693 78.3594 4.6543L87.7891 26.3691C87.8555 26.5241 87.8887 26.6237 87.8887 26.668ZM81.1816 18.168L76.3506 7.04492L71.6191 18.168H81.1816ZM91.126 5.08594C90.7939 5.61719 90.3955 6.01562 89.9307 6.28125C89.5765 6.5026 89.1836 6.61328 88.752 6.61328C88.4642 6.61328 88.3203 6.53581 88.3203 6.38086C88.3203 6.31445 88.3812 6.25911 88.5029 6.21484C88.9899 6.02669 89.3773 5.68359 89.665 5.18555C89.8975 4.78711 90.0303 4.38867 90.0635 3.99023C89.9971 4.0013 89.8975 4.00684 89.7646 4.00684C88.5804 4.00684 87.9883 3.41471 87.9883 2.23047C87.9883 1.04622 88.5804 0.454102 89.7646 0.454102C90.3623 0.454102 90.8438 0.65332 91.209 1.05176C91.6185 1.47233 91.8232 2.03678 91.8232 2.74512C91.8232 3.59733 91.5908 4.3776 91.126 5.08594ZM112.957 20.5254C112.957 22.6615 111.966 24.3438 109.985 25.5723C108.015 26.7897 105.84 27.3984 103.461 27.3984C101.458 27.3984 99.4932 26.9281 97.5674 25.9873C95.6527 25.0355 94.4961 23.4749 94.0977 21.3057C94.0534 21.0622 94.0312 20.9128 94.0312 20.8574C94.0312 20.3704 94.4961 20.127 95.4258 20.127C96.1784 20.127 96.61 20.3428 96.7207 20.7744C97.6172 24.2165 99.9027 25.9209 103.577 25.8877C105.06 25.8656 106.543 25.4173 108.026 24.543C109.509 23.6576 110.251 22.3682 110.251 20.6748C110.251 19.4574 109.515 18.5055 108.043 17.8193C106.958 17.3102 105.591 16.9671 103.942 16.79C102.946 16.6904 101.895 16.5299 100.788 16.3086C99.6924 16.0762 98.6852 15.722 97.7666 15.2461C95.6637 14.1615 94.6123 12.4958 94.6123 10.249C94.6123 8.01335 95.6527 6.42513 97.7334 5.48438C99.8141 4.54362 101.779 4.07324 103.627 4.07324C105.475 4.07324 107.235 4.49935 108.906 5.35156C110.589 6.20378 111.695 7.57617 112.227 9.46875C112.293 9.70117 112.326 9.84505 112.326 9.90039C112.326 10.3542 111.856 10.5811 110.915 10.5811C110.162 10.5811 109.731 10.3597 109.62 9.91699C108.956 7.02832 106.964 5.58398 103.644 5.58398C102.249 5.58398 100.843 5.94922 99.4268 6.67969C98.0212 7.39909 97.3184 8.58333 97.3184 10.2324C97.3184 11.3945 98.1318 12.3353 99.7588 13.0547C100.511 13.3757 101.303 13.6191 102.133 13.7852C102.963 13.9512 103.655 14.0618 104.208 14.1172C105.304 14.2279 106.416 14.4049 107.545 14.6484C108.674 14.8919 109.67 15.2904 110.533 15.8438C112.149 16.9062 112.957 18.4668 112.957 20.5254Z" fill="#0B2236"/>
</g>
<path d="M7.78176 39L5.96176 33.83H7.09176L8.30676 37.76L8.37676 38.025L8.44676 37.76L9.65176 33.83H10.7368L8.91676 39H7.78176ZM4.47176 39L2.64176 33.83H3.77176L4.98676 37.76L5.05676 38.025L5.12676 37.76L5.99176 35.45C6.09176 35.5833 6.17509 35.7583 6.24176 35.975C6.31176 36.1883 6.35009 36.4183 6.35676 36.665C6.36343 36.9117 6.32343 37.15 6.23676 37.38L5.56176 39H4.47176ZM20.1196 39.11C19.7296 39.11 19.3796 39.0383 19.0696 38.895C18.7629 38.7517 18.5029 38.5533 18.2896 38.3C18.0762 38.0467 17.9146 37.755 17.8046 37.425C17.6946 37.0917 17.6396 36.7367 17.6396 36.36C17.6396 35.8167 17.7429 35.3483 17.9496 34.955C18.1596 34.5583 18.4512 34.2533 18.8246 34.04C19.2012 33.8267 19.6379 33.72 20.1346 33.72C20.4846 33.72 20.7962 33.795 21.0696 33.945C21.3462 34.095 21.5696 34.3017 21.7396 34.565C21.9096 34.8283 22.0129 35.13 22.0496 35.47C22.0896 35.8067 22.0496 36.1633 21.9296 36.54H19.0596C19.1296 36.34 19.2296 36.1717 19.3596 36.035C19.4929 35.8983 19.6696 35.83 19.8896 35.83H21.0546C21.0846 35.5867 21.0579 35.3667 20.9746 35.17C20.8946 34.97 20.7729 34.81 20.6096 34.69C20.4462 34.57 20.2579 34.51 20.0446 34.51C19.7912 34.51 19.5612 34.58 19.3546 34.72C19.1512 34.8567 18.9896 35.0633 18.8696 35.34C18.7529 35.6133 18.6946 35.9517 18.6946 36.355C18.6946 36.745 18.7596 37.0867 18.8896 37.38C19.0229 37.6733 19.2062 37.9017 19.4396 38.065C19.6729 38.225 19.9379 38.305 20.2346 38.305C20.4646 38.305 20.6846 38.28 20.8946 38.23C21.1079 38.1767 21.3579 38.08 21.6446 37.94L21.9196 38.675C21.5896 38.8383 21.2712 38.9517 20.9646 39.015C20.6612 39.0783 20.3796 39.11 20.1196 39.11ZM31.6226 39.115C31.2593 39.115 30.9126 39.0733 30.5826 38.99C30.2526 38.9033 29.9293 38.7717 29.6126 38.595V31.42H30.6676V38.165C30.8243 38.2183 30.986 38.2567 31.1526 38.28C31.3193 38.3 31.476 38.31 31.6226 38.31C32.076 38.31 32.4326 38.1283 32.6926 37.765C32.9526 37.3983 33.0826 36.925 33.0826 36.345C33.0826 35.9683 33.031 35.645 32.9276 35.375C32.8276 35.1017 32.681 34.895 32.4876 34.755C32.2943 34.6117 32.0626 34.5467 31.7926 34.56C31.626 34.57 31.4793 34.525 31.3526 34.425C31.2293 34.325 31.116 34.1917 31.0126 34.025C31.1926 33.9383 31.381 33.8733 31.5776 33.83C31.7743 33.7833 31.951 33.76 32.1076 33.76C32.3943 33.76 32.6626 33.82 32.9126 33.94C33.166 34.06 33.3893 34.2333 33.5826 34.46C33.776 34.6833 33.9276 34.9533 34.0376 35.27C34.1476 35.5867 34.2026 35.945 34.2026 36.345C34.2026 36.8783 34.0943 37.3533 33.8776 37.77C33.6643 38.1867 33.3643 38.515 32.9776 38.755C32.591 38.995 32.1393 39.115 31.6226 39.115ZM52.3594 39.11C51.8861 39.11 51.4827 38.9917 51.1494 38.755C50.8194 38.515 50.5677 38.19 50.3944 37.78C50.2211 37.3667 50.1344 36.9017 50.1344 36.385C50.1344 35.9983 50.1961 35.645 50.3194 35.325C50.4461 35.005 50.6177 34.7283 50.8344 34.495C51.0511 34.2617 51.2961 34.0817 51.5694 33.955C51.8427 33.825 52.1261 33.76 52.4194 33.76C52.5761 33.76 52.7377 33.7717 52.9044 33.795C53.0711 33.8183 53.2561 33.865 53.4594 33.935C53.3694 34.115 53.2527 34.2633 53.1094 34.38C52.9661 34.4933 52.7861 34.5517 52.5694 34.555C52.3294 34.5517 52.1094 34.6167 51.9094 34.75C51.7127 34.8833 51.5544 35.0867 51.4344 35.36C51.3144 35.63 51.2544 35.9717 51.2544 36.385C51.2544 36.7517 51.3044 37.08 51.4044 37.37C51.5044 37.66 51.6494 37.8883 51.8394 38.055C52.0294 38.2217 52.2611 38.305 52.5344 38.305C52.7544 38.305 52.9694 38.2467 53.1794 38.13C53.3894 38.0133 53.5977 37.83 53.8044 37.58V31.42H54.8594V37.415C54.8594 37.755 54.8727 38.0567 54.8994 38.32C54.9294 38.58 54.9661 38.8067 55.0094 39H54.2294C54.1494 38.9367 54.0827 38.865 54.0294 38.785C53.9761 38.705 53.9261 38.6033 53.8794 38.48L53.8494 38.3L53.7494 38.485C53.5294 38.7183 53.2927 38.8817 53.0394 38.975C52.7894 39.065 52.5627 39.11 52.3594 39.11ZM64.9196 39.11C64.5296 39.11 64.1796 39.0383 63.8696 38.895C63.5629 38.7517 63.3029 38.5533 63.0896 38.3C62.8762 38.0467 62.7146 37.755 62.6046 37.425C62.4946 37.0917 62.4396 36.7367 62.4396 36.36C62.4396 35.8167 62.5429 35.3483 62.7496 34.955C62.9596 34.5583 63.2512 34.2533 63.6246 34.04C64.0012 33.8267 64.4379 33.72 64.9346 33.72C65.2846 33.72 65.5962 33.795 65.8696 33.945C66.1462 34.095 66.3696 34.3017 66.5396 34.565C66.7096 34.8283 66.8129 35.13 66.8496 35.47C66.8896 35.8067 66.8496 36.1633 66.7296 36.54H63.8596C63.9296 36.34 64.0296 36.1717 64.1596 36.035C64.2929 35.8983 64.4696 35.83 64.6896 35.83H65.8546C65.8846 35.5867 65.8579 35.3667 65.7746 35.17C65.6946 34.97 65.5729 34.81 65.4096 34.69C65.2462 34.57 65.0579 34.51 64.8446 34.51C64.5912 34.51 64.3612 34.58 64.1546 34.72C63.9512 34.8567 63.7896 35.0633 63.6696 35.34C63.5529 35.6133 63.4946 35.9517 63.4946 36.355C63.4946 36.745 63.5596 37.0867 63.6896 37.38C63.8229 37.6733 64.0062 37.9017 64.2396 38.065C64.4729 38.225 64.7379 38.305 65.0346 38.305C65.2646 38.305 65.4846 38.28 65.6946 38.23C65.9079 38.1767 66.1579 38.08 66.4446 37.94L66.7196 38.675C66.3896 38.8383 66.0712 38.9517 65.7646 39.015C65.4612 39.0783 65.1796 39.11 64.9196 39.11ZM75.8426 39.1C75.5893 39.1 75.311 39.0767 75.0076 39.03C74.7076 38.9833 74.356 38.8667 73.9526 38.68L74.2126 37.945C74.4826 38.0683 74.7443 38.1583 74.9976 38.215C75.251 38.2683 75.4826 38.295 75.6926 38.295C75.9793 38.295 76.191 38.23 76.3276 38.1C76.4643 37.97 76.5326 37.8083 76.5326 37.615C76.5326 37.4383 76.4743 37.2933 76.3576 37.18C76.241 37.0633 76.091 36.96 75.9076 36.87C75.7243 36.78 75.5293 36.6883 75.3226 36.595C75.116 36.5017 74.921 36.3933 74.7376 36.27C74.5543 36.1467 74.4043 35.9933 74.2876 35.81C74.171 35.6233 74.1126 35.3933 74.1126 35.12C74.1126 34.9067 74.1726 34.695 74.2926 34.485C74.416 34.2717 74.601 34.095 74.8476 33.955C75.0943 33.8117 75.406 33.74 75.7826 33.74C75.9826 33.74 76.1976 33.7583 76.4276 33.795C76.6576 33.8283 76.9193 33.8967 77.2126 34L76.9576 34.72C76.7343 34.65 76.536 34.6 76.3626 34.57C76.1893 34.54 76.0293 34.525 75.8826 34.525C75.6626 34.525 75.481 34.575 75.3376 34.675C75.1976 34.7717 75.1276 34.915 75.1276 35.105C75.1276 35.2717 75.186 35.4133 75.3026 35.53C75.4193 35.6433 75.5693 35.7467 75.7526 35.84C75.936 35.93 76.131 36.0233 76.3376 36.12C76.5443 36.2167 76.7393 36.33 76.9226 36.46C77.106 36.5867 77.256 36.745 77.3726 36.935C77.4893 37.1217 77.5476 37.355 77.5476 37.635C77.5476 37.9083 77.4676 38.1567 77.3076 38.38C77.1476 38.6 76.9376 38.775 76.6776 38.905C76.421 39.035 76.1426 39.1 75.8426 39.1ZM84.8014 39V33.83H85.8814V39H84.8014ZM85.3414 32.99C85.1547 32.99 84.998 32.9267 84.8714 32.8C84.7447 32.6733 84.6814 32.5167 84.6814 32.33C84.6814 32.1367 84.7447 31.9767 84.8714 31.85C84.998 31.72 85.1547 31.655 85.3414 31.655C85.5314 31.655 85.688 31.72 85.8114 31.85C85.938 31.9767 86.0014 32.1367 86.0014 32.33C86.0014 32.5167 85.938 32.6733 85.8114 32.8C85.688 32.9267 85.5314 32.99 85.3414 32.99ZM95.4583 41.5C95.1983 41.5 94.91 41.4717 94.5933 41.415C94.2767 41.3617 93.945 41.25 93.5983 41.08L93.8833 40.33C94.1833 40.47 94.455 40.5667 94.6983 40.62C94.9417 40.6767 95.1683 40.705 95.3783 40.705C95.6483 40.705 95.8967 40.6467 96.1233 40.53C96.35 40.4133 96.53 40.2367 96.6633 40C96.8 39.7667 96.8683 39.47 96.8683 39.11V34.63C96.7217 34.5933 96.5833 34.5683 96.4533 34.555C96.3267 34.5383 96.1983 34.53 96.0683 34.53C95.5817 34.53 95.195 34.7017 94.9083 35.045C94.6217 35.3883 94.4783 35.8683 94.4783 36.485C94.4783 36.815 94.5217 37.1183 94.6083 37.395C94.695 37.6717 94.83 37.89 95.0133 38.05C95.1967 38.2067 95.43 38.2717 95.7133 38.245C95.8767 38.2317 96.0233 38.265 96.1533 38.345C96.2833 38.4217 96.4067 38.5417 96.5233 38.705C96.3567 38.8117 96.1817 38.8967 95.9983 38.96C95.815 39.02 95.645 39.0567 95.4883 39.07C95.185 39.0867 94.9033 39.0333 94.6433 38.91C94.3867 38.7867 94.1617 38.6067 93.9683 38.37C93.775 38.1333 93.625 37.855 93.5183 37.535C93.4117 37.2117 93.3583 36.8617 93.3583 36.485C93.3583 35.945 93.47 35.4683 93.6933 35.055C93.92 34.6383 94.235 34.3133 94.6383 34.08C95.045 33.8433 95.5167 33.725 96.0533 33.725C96.24 33.725 96.4267 33.735 96.6133 33.755C96.8 33.775 96.9967 33.8083 97.2033 33.855C97.4133 33.8983 97.6467 33.96 97.9033 34.04V39C97.9033 39.5267 97.8 39.9767 97.5933 40.35C97.39 40.7233 97.105 41.0083 96.7383 41.205C96.3717 41.4017 95.945 41.5 95.4583 41.5ZM108.845 39V35.265C108.845 35.0517 108.798 34.8767 108.705 34.74C108.612 34.6033 108.467 34.535 108.27 34.535C108.193 34.535 108.125 34.5433 108.065 34.56C108.005 34.5767 107.93 34.5933 107.84 34.61C107.657 34.6433 107.488 34.6267 107.335 34.56C107.185 34.49 107.047 34.3817 106.92 34.235C107.27 34.0317 107.565 33.895 107.805 33.825C108.048 33.755 108.267 33.72 108.46 33.72C108.717 33.72 108.957 33.7717 109.18 33.875C109.403 33.9783 109.582 34.1467 109.715 34.38C109.852 34.6133 109.92 34.93 109.92 35.33V39H108.845ZM105.58 39V35.09C105.58 34.9033 105.568 34.705 105.545 34.495C105.522 34.285 105.482 34.0633 105.425 33.83H106.265C106.425 34.01 106.53 34.1883 106.58 34.365C106.633 34.5417 106.66 34.73 106.66 34.93V39H105.58Z" fill="#707070"/>
<defs>
<filter id="filter0_i_2_57" x="1.66016" y="0.454102" width="111.297" height="30.9443" filterUnits="userSpaceOnUse" color-interpolation-filters="sRGB">
<feFlood flood-opacity="0" result="BackgroundImageFix"/>
<feBlend mode="normal" in="SourceGraphic" in2="BackgroundImageFix" result="shape"/>
<feColorMatrix in="SourceAlpha" type="matrix" values="0 0 0 0 0 0 0 0 0 0 0 0 0 0 0 0 0 0 127 0" result="hardAlpha"/>
<feOffset dy="4"/>
<feGaussianBlur stdDeviation="2"/>
<feComposite in2="hardAlpha" operator="arithmetic" k2="-1" k3="1"/>
<feColorMatrix type="matrix" values="0 0 0 0 0 0 0 0 0 0 0 0 0 0 0 0 0 0 0.25 0"/>
<feBlend mode="normal" in2="shape" result="effect1_innerShadow_2_57"/>
</filter>
</defs>
</svg>
