<svg width="114" height="42" viewBox="0 0 114 42" fill="none" xmlns="http://www.w3.org/2000/svg">
<g filter="url(#filter0_i_2_56)">
<path d="M3.00488 4.47168H10.7412C14.0283 4.47168 16.5573 5.59505 18.3281 7.8418C20.11 10.0885 21.001 12.7337 21.001 15.7773C21.012 18.8431 20.1266 21.4827 18.3447 23.6963C16.5739 25.8988 14.0394 27 10.7412 27H3.00488C2.1084 27 1.66016 26.751 1.66016 26.2529V5.21875C1.66016 4.7207 2.1084 4.47168 3.00488 4.47168ZM10.7412 5.98242H4.36621V25.4893H10.7412C13.32 25.4893 15.2292 24.4378 16.4688 22.335C17.7083 20.221 18.3226 18.0352 18.3115 15.7773C18.3115 13.5417 17.6917 11.3503 16.4521 9.20312C15.2236 7.05599 13.32 5.98242 10.7412 5.98242ZM44.2266 26.668C44.2266 27.1549 43.7174 27.3984 42.6992 27.3984C41.9134 27.3984 41.4375 27.2048 41.2715 26.8174L38.167 19.6787H27.3262L24.2051 27.0166C24.0833 27.2712 23.7734 27.3984 23.2754 27.3984C22.6003 27.3984 22.2627 27.2324 22.2627 26.9004C22.2627 26.8893 22.2738 26.8395 22.2959 26.751L31.709 4.62109C31.8529 4.25586 32.373 4.07324 33.2695 4.07324C34.0443 4.07324 34.5202 4.26693 34.6973 4.6543L44.127 26.3691C44.1934 26.5241 44.2266 26.6237 44.2266 26.668ZM37.5195 18.168L32.6885 7.04492L27.957 18.168H37.5195ZM55.084 27.3984C54.1875 27.3984 53.7393 27.1494 53.7393 26.6514V16.3086L45.1895 5.08594C45.112 4.9974 45.0732 4.89779 45.0732 4.78711C45.0732 4.3112 45.5934 4.07324 46.6338 4.07324C47.2979 4.07324 47.7516 4.23372 47.9951 4.55469L55.5488 14.4824L63.0361 4.42188C63.2021 4.18945 63.5397 4.07324 64.0488 4.07324C64.7461 4.07324 65.0947 4.25033 65.0947 4.60449C65.0947 4.6709 65.0726 4.73177 65.0283 4.78711L56.4453 16.3252V26.6514C56.4453 27.1494 55.9915 27.3984 55.084 27.3984ZM87.8887 26.668C87.8887 27.1549 87.3796 27.3984 86.3613 27.3984C85.5755 27.3984 85.0996 27.2048 84.9336 26.8174L81.8291 19.6787H70.9883L67.8672 27.0166C67.7454 27.2712 67.4355 27.3984 66.9375 27.3984C66.2624 27.3984 65.9248 27.2324 65.9248 26.9004C65.9248 26.8893 65.9359 26.8395 65.958 26.751L75.3711 4.62109C75.515 4.25586 76.0352 4.07324 76.9316 4.07324C77.7064 4.07324 78.1823 4.26693 78.3594 4.6543L87.7891 26.3691C87.8555 26.5241 87.8887 26.6237 87.8887 26.668ZM81.1816 18.168L76.3506 7.04492L71.6191 18.168H81.1816ZM91.126 5.08594C90.7939 5.61719 90.3955 6.01562 89.9307 6.28125C89.5765 6.5026 89.1836 6.61328 88.752 6.61328C88.4642 6.61328 88.3203 6.53581 88.3203 6.38086C88.3203 6.31445 88.3812 6.25911 88.5029 6.21484C88.9899 6.02669 89.3773 5.68359 89.665 5.18555C89.8975 4.78711 90.0303 4.38867 90.0635 3.99023C89.9971 4.0013 89.8975 4.00684 89.7646 4.00684C88.5804 4.00684 87.9883 3.41471 87.9883 2.23047C87.9883 1.04622 88.5804 0.454102 89.7646 0.454102C90.3623 0.454102 90.8438 0.65332 91.209 1.05176C91.6185 1.47233 91.8232 2.03678 91.8232 2.74512C91.8232 3.59733 91.5908 4.3776 91.126 5.08594ZM112.957 20.5254C112.957 22.6615 111.966 24.3438 109.985 25.5723C108.015 26.7897 105.84 27.3984 103.461 27.3984C101.458 27.3984 99.4932 26.9281 97.5674 25.9873C95.6527 25.0355 94.4961 23.4749 94.0977 21.3057C94.0534 21.0622 94.0312 20.9128 94.0312 20.8574C94.0312 20.3704 94.4961 20.127 95.4258 20.127C96.1784 20.127 96.61 20.3428 96.7207 20.7744C97.6172 24.2165 99.9027 25.9209 103.577 25.8877C105.06 25.8656 106.543 25.4173 108.026 24.543C109.509 23.6576 110.251 22.3682 110.251 20.6748C110.251 19.4574 109.515 18.5055 108.043 17.8193C106.958 17.3102 105.591 16.9671 103.942 16.79C102.946 16.6904 101.895 16.5299 100.788 16.3086C99.6924 16.0762 98.6852 15.722 97.7666 15.2461C95.6637 14.1615 94.6123 12.4958 94.6123 10.249C94.6123 8.01335 95.6527 6.42513 97.7334 5.48438C99.8141 4.54362 101.779 4.07324 103.627 4.07324C105.475 4.07324 107.235 4.49935 108.906 5.35156C110.589 6.20378 111.695 7.57617 112.227 9.46875C112.293 9.70117 112.326 9.84505 112.326 9.90039C112.326 10.3542 111.856 10.5811 110.915 10.5811C110.162 10.5811 109.731 10.3597 109.62 9.91699C108.956 7.02832 106.964 5.58398 103.644 5.58398C102.249 5.58398 100.843 5.94922 99.4268 6.67969C98.0212 7.39909 97.3184 8.58333 97.3184 10.2324C97.3184 11.3945 98.1318 12.3353 99.7588 13.0547C100.511 13.3757 101.303 13.6191 102.133 13.7852C102.963 13.9512 103.655 14.0618 104.208 14.1172C105.304 14.2279 106.416 14.4049 107.545 14.6484C108.674 14.8919 109.67 15.2904 110.533 15.8438C112.149 16.9062 112.957 18.4668 112.957 20.5254Z" fill="#0B2236"/>
</g>
<path d="M56.1299 39L54.1279 33.313H55.3709L56.7074 37.636L56.7844 37.9275L56.8614 37.636L58.1869 33.313H59.3804L57.3784 39H56.1299ZM52.4889 39L50.4759 33.313H51.7189L53.0554 37.636L53.1324 37.9275L53.2094 37.636L54.1609 35.095C54.2709 35.2417 54.3626 35.4342 54.4359 35.6725C54.5129 35.9072 54.5551 36.1602 54.5624 36.4315C54.5698 36.7028 54.5258 36.965 54.4304 37.218L53.6879 39H52.4889ZM63.5415 39.121C63.1125 39.121 62.7275 39.0422 62.3865 38.8845C62.0492 38.7268 61.7632 38.5087 61.5285 38.23C61.2939 37.9513 61.116 37.6305 60.995 37.2675C60.874 36.9008 60.8135 36.5103 60.8135 36.096C60.8135 35.4983 60.9272 34.9832 61.1545 34.5505C61.3855 34.1142 61.7064 33.7787 62.117 33.544C62.5314 33.3093 63.0117 33.192 63.558 33.192C63.943 33.192 64.2859 33.2745 64.5865 33.4395C64.8909 33.6045 65.1365 33.8318 65.3235 34.1215C65.5105 34.4112 65.6242 34.743 65.6645 35.117C65.7085 35.4873 65.6645 35.8797 65.5325 36.294H62.3755C62.4525 36.074 62.5625 35.8888 62.7055 35.7385C62.8522 35.5882 63.0465 35.513 63.2885 35.513H64.57C64.603 35.2453 64.5737 35.0033 64.482 34.787C64.394 34.567 64.2602 34.391 64.0805 34.259C63.9009 34.127 63.6937 34.061 63.459 34.061C63.1804 34.061 62.9274 34.138 62.7 34.292C62.4764 34.4423 62.2985 34.6697 62.1665 34.974C62.0382 35.2747 61.974 35.6468 61.974 36.0905C61.974 36.5195 62.0455 36.8953 62.1885 37.218C62.3352 37.5407 62.5369 37.7918 62.7935 37.9715C63.0502 38.1475 63.3417 38.2355 63.668 38.2355C63.921 38.2355 64.163 38.208 64.394 38.153C64.6287 38.0943 64.9037 37.988 65.219 37.834L65.5215 38.6425C65.1585 38.8222 64.8084 38.9468 64.471 39.0165C64.1374 39.0862 63.8275 39.121 63.5415 39.121ZM70.0349 39.1265C69.6352 39.1265 69.2539 39.0807 68.8909 38.989C68.5279 38.8937 68.1722 38.7488 67.8239 38.5545V30.662H68.9844V38.0815C69.1567 38.1402 69.3345 38.1823 69.5179 38.208C69.7012 38.23 69.8735 38.241 70.0349 38.241C70.5335 38.241 70.9259 38.0412 71.2119 37.6415C71.4979 37.2382 71.6409 36.7175 71.6409 36.0795C71.6409 35.6652 71.584 35.3095 71.4704 35.0125C71.3604 34.7118 71.199 34.4845 70.9864 34.3305C70.7737 34.1728 70.5189 34.1013 70.2219 34.116C70.0385 34.127 69.8772 34.0775 69.7379 33.9675C69.6022 33.8575 69.4775 33.7108 69.3639 33.5275C69.5619 33.4322 69.769 33.3607 69.9854 33.313C70.2017 33.2617 70.396 33.236 70.5684 33.236C70.8837 33.236 71.1789 33.302 71.4539 33.434C71.7325 33.566 71.9782 33.7567 72.1909 34.006C72.4035 34.2517 72.5704 34.5487 72.6914 34.897C72.8124 35.2453 72.8729 35.6395 72.8729 36.0795C72.8729 36.6662 72.7537 37.1887 72.5154 37.647C72.2807 38.1053 71.9507 38.4665 71.5254 38.7305C71.1 38.9945 70.6032 39.1265 70.0349 39.1265ZM80.5254 39.121C80.0047 39.121 79.561 38.9908 79.1944 38.7305C78.8314 38.4665 78.5545 38.109 78.3639 37.658C78.1732 37.2033 78.0779 36.6918 78.0779 36.1235C78.0779 35.6982 78.1457 35.3095 78.2814 34.9575C78.4207 34.6055 78.6095 34.3012 78.8479 34.0445C79.0862 33.7878 79.3557 33.5898 79.6564 33.4505C79.957 33.3075 80.2687 33.236 80.5914 33.236C80.7637 33.236 80.9415 33.2488 81.1249 33.2745C81.3082 33.3002 81.5117 33.3515 81.7354 33.4285C81.6364 33.6265 81.508 33.7897 81.3504 33.918C81.1927 34.0427 80.9947 34.1068 80.7564 34.1105C80.4924 34.1068 80.2504 34.1783 80.0304 34.325C79.814 34.4717 79.6399 34.6953 79.5079 34.996C79.3759 35.293 79.3099 35.6688 79.3099 36.1235C79.3099 36.5268 79.3649 36.888 79.4749 37.207C79.5849 37.526 79.7444 37.7772 79.9534 37.9605C80.1624 38.1438 80.4172 38.2355 80.7179 38.2355C80.9599 38.2355 81.1964 38.1713 81.4274 38.043C81.6584 37.9147 81.8875 37.713 82.1149 37.438V30.662H83.2754V37.2565C83.2754 37.6305 83.29 37.9623 83.3194 38.252C83.3524 38.538 83.3927 38.7873 83.4404 39H82.5824C82.4944 38.9303 82.421 38.8515 82.3624 38.7635C82.3037 38.6755 82.2487 38.5637 82.1974 38.428L82.1644 38.23L82.0544 38.4335C81.8124 38.6902 81.552 38.8698 81.2734 38.9725C80.9984 39.0715 80.749 39.121 80.5254 39.121ZM88.1815 39.121C87.7525 39.121 87.3675 39.0422 87.0265 38.8845C86.6892 38.7268 86.4032 38.5087 86.1685 38.23C85.9339 37.9513 85.756 37.6305 85.635 37.2675C85.514 36.9008 85.4535 36.5103 85.4535 36.096C85.4535 35.4983 85.5672 34.9832 85.7945 34.5505C86.0255 34.1142 86.3464 33.7787 86.757 33.544C87.1714 33.3093 87.6517 33.192 88.198 33.192C88.583 33.192 88.9259 33.2745 89.2265 33.4395C89.5309 33.6045 89.7765 33.8318 89.9635 34.1215C90.1505 34.4112 90.2642 34.743 90.3045 35.117C90.3485 35.4873 90.3045 35.8797 90.1725 36.294H87.0155C87.0925 36.074 87.2025 35.8888 87.3455 35.7385C87.4922 35.5882 87.6865 35.513 87.9285 35.513H89.21C89.243 35.2453 89.2137 35.0033 89.122 34.787C89.034 34.567 88.9002 34.391 88.7205 34.259C88.5409 34.127 88.3337 34.061 88.099 34.061C87.8204 34.061 87.5674 34.138 87.34 34.292C87.1164 34.4423 86.9385 34.6697 86.8065 34.974C86.6782 35.2747 86.614 35.6468 86.614 36.0905C86.614 36.5195 86.6855 36.8953 86.8285 37.218C86.9752 37.5407 87.1769 37.7918 87.4335 37.9715C87.6902 38.1475 87.9817 38.2355 88.308 38.2355C88.561 38.2355 88.803 38.208 89.034 38.153C89.2687 38.0943 89.5437 37.988 89.859 37.834L90.1615 38.6425C89.7985 38.8222 89.4484 38.9468 89.111 39.0165C88.7774 39.0862 88.4675 39.121 88.1815 39.121ZM94.0369 39.11C93.7582 39.11 93.452 39.0843 93.1184 39.033C92.7884 38.9817 92.4015 38.8533 91.9579 38.648L92.2439 37.8395C92.5409 37.9752 92.8287 38.0742 93.1074 38.1365C93.386 38.1952 93.6409 38.2245 93.8719 38.2245C94.1872 38.2245 94.42 38.153 94.5704 38.01C94.7207 37.867 94.7959 37.6892 94.7959 37.4765C94.7959 37.2822 94.7317 37.1227 94.6034 36.998C94.475 36.8697 94.31 36.756 94.1084 36.657C93.9067 36.558 93.6922 36.4572 93.4649 36.3545C93.2375 36.2518 93.023 36.1327 92.8214 35.997C92.6197 35.8613 92.4547 35.6927 92.3264 35.491C92.198 35.2857 92.1339 35.0327 92.1339 34.732C92.1339 34.4973 92.1999 34.2645 92.3319 34.0335C92.4675 33.7988 92.671 33.6045 92.9424 33.4505C93.2137 33.2928 93.5565 33.214 93.9709 33.214C94.1909 33.214 94.4274 33.2342 94.6804 33.2745C94.9334 33.3112 95.2212 33.3863 95.5439 33.5L95.2634 34.292C95.0177 34.215 94.7995 34.16 94.6089 34.127C94.4182 34.094 94.2422 34.0775 94.0809 34.0775C93.8389 34.0775 93.639 34.1325 93.4814 34.2425C93.3274 34.3488 93.2504 34.5065 93.2504 34.7155C93.2504 34.8988 93.3145 35.0547 93.4429 35.183C93.5712 35.3077 93.7362 35.4213 93.9379 35.524C94.1395 35.623 94.354 35.7257 94.5814 35.832C94.8087 35.9383 95.0232 36.063 95.2249 36.206C95.4265 36.3453 95.5915 36.5195 95.7199 36.7285C95.8482 36.9338 95.9124 37.1905 95.9124 37.4985C95.9124 37.7992 95.8244 38.0723 95.6484 38.318C95.4724 38.56 95.2414 38.7525 94.9554 38.8955C94.673 39.0385 94.3669 39.11 94.0369 39.11ZM97.7315 39V33.313H98.9195V39H97.7315ZM98.3255 32.389C98.1202 32.389 97.9478 32.3193 97.8085 32.18C97.6692 32.0407 97.5995 31.8683 97.5995 31.663C97.5995 31.4503 97.6692 31.2743 97.8085 31.135C97.9478 30.992 98.1202 30.9205 98.3255 30.9205C98.5345 30.9205 98.7068 30.992 98.8425 31.135C98.9818 31.2743 99.0515 31.4503 99.0515 31.663C99.0515 31.8683 98.9818 32.0407 98.8425 32.18C98.7068 32.3193 98.5345 32.389 98.3255 32.389ZM103.294 41.75C103.008 41.75 102.691 41.7188 102.343 41.6565C101.994 41.5978 101.629 41.475 101.248 41.288L101.562 40.463C101.892 40.617 102.19 40.7233 102.458 40.782C102.726 40.8443 102.975 40.8755 103.206 40.8755C103.503 40.8755 103.776 40.8113 104.026 40.683C104.275 40.5547 104.473 40.3603 104.62 40.1C104.77 39.8433 104.845 39.517 104.845 39.121V34.193C104.684 34.1527 104.532 34.1252 104.389 34.1105C104.249 34.0922 104.108 34.083 103.965 34.083C103.43 34.083 103.004 34.2718 102.689 34.6495C102.374 35.0272 102.216 35.5552 102.216 36.2335C102.216 36.5965 102.264 36.9302 102.359 37.2345C102.454 37.5388 102.603 37.779 102.805 37.955C103.006 38.1273 103.263 38.1988 103.575 38.1695C103.754 38.1548 103.916 38.1915 104.059 38.2795C104.202 38.3638 104.337 38.4958 104.466 38.6755C104.282 38.7928 104.09 38.8863 103.888 38.956C103.686 39.022 103.499 39.0623 103.327 39.077C102.993 39.0953 102.684 39.0367 102.398 38.901C102.115 38.7653 101.868 38.5673 101.655 38.307C101.442 38.0467 101.277 37.7405 101.16 37.3885C101.043 37.0328 100.984 36.6478 100.984 36.2335C100.984 35.6395 101.107 35.1152 101.353 34.6605C101.602 34.2022 101.948 33.8447 102.392 33.588C102.839 33.3277 103.358 33.1975 103.949 33.1975C104.154 33.1975 104.359 33.2085 104.565 33.2305C104.77 33.2525 104.986 33.2892 105.214 33.3405C105.445 33.3882 105.701 33.456 105.984 33.544V39C105.984 39.5793 105.87 40.0743 105.643 40.485C105.419 40.8957 105.105 41.2092 104.702 41.4255C104.299 41.6418 103.829 41.75 103.294 41.75ZM111.86 39V34.8915C111.86 34.6568 111.808 34.4643 111.706 34.314C111.603 34.1637 111.443 34.0885 111.227 34.0885C111.143 34.0885 111.068 34.0977 111.002 34.116C110.936 34.1343 110.853 34.1527 110.754 34.171C110.552 34.2077 110.367 34.1893 110.199 34.116C110.034 34.039 109.881 33.9198 109.742 33.7585C110.127 33.5348 110.452 33.3845 110.716 33.3075C110.983 33.2305 111.223 33.192 111.436 33.192C111.718 33.192 111.982 33.2488 112.228 33.3625C112.474 33.4762 112.67 33.6613 112.817 33.918C112.967 34.1747 113.042 34.523 113.042 34.963V39H111.86ZM108.268 39V34.699C108.268 34.4937 108.255 34.2755 108.23 34.0445C108.204 33.8135 108.16 33.5697 108.098 33.313H109.022C109.198 33.511 109.313 33.7072 109.368 33.9015C109.427 34.0958 109.456 34.303 109.456 34.523V39H108.268Z" fill="#707070"/>
<defs>
<filter id="filter0_i_2_56" x="1.66016" y="0.454102" width="111.297" height="30.9443" filterUnits="userSpaceOnUse" color-interpolation-filters="sRGB">
<feFlood flood-opacity="0" result="BackgroundImageFix"/>
<feBlend mode="normal" in="SourceGraphic" in2="BackgroundImageFix" result="shape"/>
<feColorMatrix in="SourceAlpha" type="matrix" values="0 0 0 0 0 0 0 0 0 0 0 0 0 0 0 0 0 0 127 0" result="hardAlpha"/>
<feOffset dy="4"/>
<feGaussianBlur stdDeviation="2"/>
<feComposite in2="hardAlpha" operator="arithmetic" k2="-1" k3="1"/>
<feColorMatrix type="matrix" values="0 0 0 0 0 0 0 0 0 0 0 0 0 0 0 0 0 0 0.25 0"/>
<feBlend mode="normal" in2="shape" result="effect1_innerShadow_2_56"/>
</filter>
</defs>
</svg>
